<svg width="20" height="20" viewBox="0 0 20 20" fill="none" xmlns="http://www.w3.org/2000/svg">
<g clip-path="url(#clip0_630_921)">
<mask id="mask0_630_921" style="mask-type:luminance" maskUnits="userSpaceOnUse" x="0" y="0" width="20" height="20">
<path d="M20 0H0V20H20V0Z" fill="white"/>
</mask>
<g mask="url(#mask0_630_921)">
<path d="M19.602 10.2271C19.602 9.51804 19.5384 8.83624 19.4202 8.18164H10.002V12.0498H15.3838C15.152 13.2998 14.4475 14.3589 13.3884 15.068V17.5771H16.6202C18.5111 15.8362 19.602 13.2725 19.602 10.2271Z" fill="#4285F4"/>
<path d="M10.0009 20.0004C12.7009 20.0004 14.9645 19.1049 16.6191 17.5777L13.3872 15.0686C12.4918 15.6686 11.3463 16.0231 10.0009 16.0231C7.39625 16.0231 5.19175 14.264 4.40535 11.9004H1.06445V14.4913C2.70995 17.7595 6.09175 20.0004 10.0009 20.0004Z" fill="#34A853"/>
<path d="M4.4045 11.9007C4.2045 11.3007 4.0909 10.6598 4.0909 10.0007C4.0909 9.34157 4.2045 8.70067 4.4045 8.10067V5.50977H1.0636C0.386401 6.85977 0 8.38707 0 10.0007C0 11.6143 0.386401 13.1416 1.0636 14.4916L4.4045 11.9007Z" fill="#FBBC04"/>
<path d="M10.0009 3.9773C11.4691 3.9773 12.7872 4.4818 13.8236 5.4727L16.6918 2.6045C14.96 0.9909 12.6963 0 10.0009 0C6.09175 0 2.70995 2.2409 1.06445 5.5091L4.40535 8.1C5.19175 5.7364 7.39625 3.9773 10.0009 3.9773Z" fill="#E94235"/>
</g>
</g>
<defs>
<clipPath id="clip0_630_921">
<rect width="20" height="20" fill="white"/>
</clipPath>
</defs>
</svg>
