<svg width="14" height="17" viewBox="0 0 14 17" fill="none" xmlns="http://www.w3.org/2000/svg">
<path d="M10.1475 4.11025C10.3103 4.11025 10.5879 4.13583 10.9802 4.18698C11.3725 4.23813 11.8017 4.38427 12.268 4.6254C12.7417 4.85923 13.171 5.25016 13.5559 5.79819C13.5337 5.82012 13.4264 5.90049 13.2339 6.03933C13.0415 6.17086 12.8269 6.36815 12.59 6.63121C12.3532 6.88695 12.1459 7.21577 11.9683 7.61767C11.7906 8.01225 11.7018 8.48356 11.7018 9.03159C11.7018 9.66 11.8128 10.1934 12.0349 10.6319C12.2643 11.0703 12.5271 11.4247 12.8232 11.695C13.1266 11.9581 13.3931 12.1517 13.6225 12.276C13.8594 12.4002 13.9852 12.4659 14 12.4732C13.9926 12.5025 13.8964 12.7619 13.7113 13.2515C13.5337 13.741 13.2376 14.2854 12.8232 14.8846C12.4605 15.4034 12.0682 15.882 11.6463 16.3204C11.2318 16.7589 10.7322 16.9781 10.1475 16.9781C9.75522 16.9781 9.43325 16.9233 9.1816 16.8137C8.92995 16.6968 8.6709 16.5835 8.40444 16.4739C8.13799 16.357 7.77901 16.2985 7.32752 16.2985C6.89083 16.2985 6.52445 16.357 6.22839 16.4739C5.93973 16.5908 5.66217 16.7077 5.39572 16.8246C5.13666 16.9415 4.8295 17 4.47423 17C3.93391 17 3.46022 16.7881 3.05313 16.3643C2.64605 15.9405 2.22786 15.4326 1.79857 14.8407C1.30267 14.1393 0.877082 13.2843 0.521808 12.276C0.173936 11.2603 0 10.2373 0 9.20696C0 8.10359 0.210944 7.17924 0.632831 6.43391C1.05472 5.68128 1.59503 5.11498 2.25377 4.73501C2.9199 4.34773 3.60825 4.15409 4.31879 4.15409C4.69627 4.15409 5.05155 4.2162 5.38462 4.34043C5.71768 4.45734 6.02855 4.57791 6.31721 4.70213C6.61327 4.82635 6.87973 4.88846 7.11657 4.88846C7.34602 4.88846 7.61248 4.82269 7.91594 4.69117C8.2194 4.55964 8.55987 4.43176 8.93735 4.30754C9.31483 4.17602 9.71821 4.11025 10.1475 4.11025ZM9.53688 2.71825C9.24822 3.06168 8.88554 3.35031 8.44885 3.58414C8.01216 3.81066 7.59767 3.92392 7.20539 3.92392C7.12398 3.92392 7.04626 3.91661 6.97224 3.902C6.96484 3.88008 6.95744 3.83989 6.95004 3.78143C6.94264 3.72297 6.93894 3.66086 6.93894 3.5951C6.93894 3.15667 7.03516 2.73286 7.2276 2.32366C7.42004 1.90716 7.63838 1.56372 7.88263 1.29336C8.1935 0.928003 8.58578 0.624758 9.05948 0.383623C9.53317 0.142489 9.98467 0.0146142 10.414 0C10.4362 0.0949925 10.4473 0.208253 10.4473 0.339781C10.4473 0.778208 10.3621 1.20567 10.1919 1.62218C10.0217 2.03138 9.80333 2.39673 9.53688 2.71825Z" fill="white"/>
</svg>
