<svg width="162" height="124" viewBox="0 0 162 124" fill="none" xmlns="http://www.w3.org/2000/svg">
<g clip-path="url(#clip0_468_1834)">
<path d="M38.3083 105.562C38.3083 106.875 37.8964 109.143 37.0724 112.365C36.2484 115.555 35.8364 117.651 35.8364 118.651C35.8364 119.621 35.9738 120.106 36.2484 120.106C36.4315 120.106 37.1334 119.809 38.3541 119.214L38.9034 118.933L39.6816 120.575C39.407 120.825 39.0408 121.138 38.583 121.513C38.1252 121.889 37.2708 122.405 36.0196 123.062C34.7683 123.687 33.6087 124 32.5406 124C31.4725 124 30.6332 123.672 30.0229 123.015C29.4126 122.327 29.1074 121.42 29.1074 120.294C29.1074 119.136 29.4888 117.103 30.2518 114.194C31.0147 111.254 31.3962 109.346 31.3962 108.471C31.3962 107.157 30.9995 105.921 30.206 104.764L29.794 104.201L29.8398 103.591C31.4572 103.122 34.0817 102.887 37.7133 102.887C38.11 103.357 38.3083 104.248 38.3083 105.562ZM33.0899 97.7735C32.4795 97.1479 32.1744 96.319 32.1744 95.2869C32.1744 94.2547 32.5864 93.3476 33.4103 92.5657C34.2648 91.7837 35.2414 91.3928 36.34 91.3928C37.4386 91.3928 38.2931 91.7055 38.9034 92.3311C39.5138 92.9567 39.819 93.7855 39.819 94.8177C39.819 95.8186 39.3765 96.71 38.4915 97.492C37.637 98.2739 36.6757 98.6649 35.6076 98.6649C34.5395 98.6649 33.7002 98.3677 33.0899 97.7735Z" fill="#89CC00"/>
<path d="M55.6328 103.216C55.5717 103.998 55.3123 104.905 54.8546 105.937C53.6949 105.812 52.5963 105.749 51.5587 105.749H50.7347C49.3309 112.724 48.629 117.072 48.629 118.792C48.629 119.699 48.8121 120.153 49.1784 120.153C49.5751 120.153 50.5974 119.762 52.2453 118.98L53.0693 120.528C50.3533 122.843 47.8356 124 45.5163 124C44.4482 124 43.5632 123.656 42.8613 122.968C42.1899 122.28 41.8542 121.373 41.8542 120.247C41.8542 119.089 41.9763 117.791 42.2204 116.353C42.4951 114.914 42.8613 113.162 43.319 111.098C43.7768 109.002 44.1125 107.313 44.3261 106.031C43.197 106.125 42.3577 106.218 41.8084 106.312C41.7474 105.937 41.7169 105.437 41.7169 104.811C41.7169 104.154 41.7626 103.622 41.8542 103.216H44.7381C44.9822 101.527 45.1043 99.9316 45.1043 98.4303L45.0585 96.9759V96.8351C47.4389 95.9906 49.6819 95.5684 51.7876 95.5684C51.9096 96.1939 51.9707 96.9759 51.9707 97.9142C51.9707 98.8525 51.7113 100.62 51.1925 103.216H55.6328Z" fill="#89CC00"/>
<path d="M68.4465 104.013C68.5075 103.951 68.6753 103.544 68.95 102.794C70.3843 102.794 72.3069 103.231 74.7178 104.107C73.9548 106.703 73.3445 109.424 72.8867 112.271C72.429 115.086 72.2001 117.103 72.2001 118.323C72.2001 119.512 72.3222 120.106 72.5663 120.106C72.7494 120.106 73.4208 119.809 74.5804 119.214L75.1297 118.933L75.9537 120.575C75.6791 120.825 75.3129 121.138 74.8551 121.513C74.4279 121.889 73.6039 122.405 72.3832 123.062C71.1625 123.687 70.0639 124 69.0873 124C67.1953 124 66.0966 123.124 65.7915 121.373C63.8383 123.124 62.0683 124 60.4814 124C58.9251 124 57.5975 123.374 56.4989 122.123C55.4308 120.872 54.8968 118.902 54.8968 116.212C54.8968 112.021 55.736 108.721 57.4144 106.312C59.0929 103.873 61.1223 102.653 63.5027 102.653C65.2116 102.653 66.8596 103.106 68.4465 104.013ZM63.228 120.012C63.9604 120.012 64.7844 119.715 65.6999 119.121C65.9135 114.71 66.6307 110.347 67.8514 106.031C66.9359 105.624 66.1577 105.421 65.5168 105.421C64.4182 105.421 63.4721 106.531 62.6787 108.752C61.9157 110.941 61.5343 113.366 61.5343 116.024C61.5343 118.683 62.0989 120.012 63.228 120.012Z" fill="#89CC00"/>
<path d="M78.0351 123.578H77.1653C77.1653 122.108 77.5926 119.293 78.4471 115.133C79.3321 110.973 79.7746 108.611 79.7746 108.048C79.7746 107.016 79.3473 105.921 78.4928 104.764L78.0809 104.201L78.1266 103.591C79.7746 103.122 82.4143 102.887 86.0459 102.887C86.4731 103.482 86.6867 104.451 86.6867 105.796C89.4333 103.701 91.6153 102.653 93.2327 102.653C95.2774 102.653 96.4828 103.732 96.849 105.89C97.673 105.202 98.7411 104.498 100.053 103.779C101.396 103.028 102.586 102.653 103.624 102.653C104.692 102.653 105.577 103.013 106.279 103.732C106.981 104.42 107.332 105.39 107.332 106.641C107.332 107.892 106.996 109.956 106.325 112.834C105.653 115.711 105.318 117.651 105.318 118.651C105.318 119.621 105.455 120.106 105.73 120.106C105.913 120.106 106.538 119.809 107.606 119.214L108.11 118.933L108.934 120.575C108.14 121.388 107.057 122.17 105.684 122.921C104.341 123.64 103.151 124 102.113 124C99.8245 124 98.68 122.671 98.68 120.012C98.68 119.042 99.0005 117.103 99.6413 114.194C100.313 111.254 100.648 109.346 100.648 108.471C100.648 107.563 100.389 107.11 99.8702 107.11C98.9852 107.11 97.9782 107.454 96.849 108.142C96.788 108.768 96.3607 110.895 95.5673 114.523C94.8044 118.151 94.4229 120.966 94.4229 122.968C93.5379 123.374 91.4627 123.578 88.1973 123.578C88.1363 123.234 88.1058 122.405 88.1058 121.091C88.1058 119.777 88.4568 117.541 89.1587 114.382C89.8911 111.223 90.2573 109.221 90.2573 108.377C90.2573 107.532 89.9674 107.11 89.3875 107.11C88.472 107.11 87.4649 107.485 86.3663 108.236C86.3053 108.517 86.0001 109.894 85.4508 112.365C84.3522 117.307 83.8029 120.825 83.8029 122.921C82.7348 123.359 80.8122 123.578 78.0351 123.578Z" fill="#FF516A"/>
<path d="M110.233 115.32C110.233 111.411 111.377 108.33 113.666 106.078C115.985 103.794 118.61 102.653 121.539 102.653C123.34 102.653 124.82 103.106 125.98 104.013C127.139 104.92 127.719 106.14 127.719 107.673C127.719 109.174 127.338 110.441 126.575 111.473C125.842 112.505 124.942 113.303 123.874 113.866C121.707 114.961 119.724 115.649 117.923 115.93L116.825 116.071C117.038 119.011 118.213 120.481 120.349 120.481C121.082 120.481 121.86 120.294 122.684 119.918C123.508 119.543 124.149 119.168 124.606 118.792L125.293 118.229L126.392 119.731C126.148 120.075 125.659 120.528 124.927 121.091C124.194 121.654 123.508 122.123 122.867 122.499C121.097 123.5 119.159 124 117.053 124C114.948 124 113.284 123.234 112.064 121.701C110.843 120.168 110.233 118.042 110.233 115.32ZM116.779 113.772C118.335 113.491 119.571 112.818 120.487 111.755C121.402 110.691 121.86 109.315 121.86 107.626C121.86 105.937 121.372 105.092 120.395 105.092C119.235 105.092 118.335 106.109 117.694 108.142C117.084 110.144 116.779 112.021 116.779 113.772Z" fill="#FF516A"/>
<path d="M142.341 104.013C142.402 103.951 142.57 103.544 142.844 102.794C144.279 102.794 146.201 103.231 148.612 104.107C147.849 106.703 147.239 109.424 146.781 112.271C146.323 115.086 146.094 117.103 146.094 118.323C146.094 119.512 146.216 120.106 146.46 120.106C146.644 120.106 147.315 119.809 148.475 119.214L149.024 118.933L149.848 120.575C149.573 120.825 149.207 121.138 148.749 121.513C148.322 121.889 147.498 122.405 146.277 123.062C145.057 123.687 143.958 124 142.982 124C141.089 124 139.991 123.124 139.686 121.373C137.733 123.124 135.963 124 134.376 124C132.819 124 131.492 123.374 130.393 122.123C129.325 120.872 128.791 118.902 128.791 116.212C128.791 112.021 129.63 108.721 131.309 106.312C132.987 103.873 135.017 102.653 137.397 102.653C139.106 102.653 140.754 103.106 142.341 104.013ZM137.122 120.012C137.855 120.012 138.679 119.715 139.594 119.121C139.808 114.71 140.525 110.347 141.746 106.031C140.83 105.624 140.052 105.421 139.411 105.421C138.312 105.421 137.366 106.531 136.573 108.752C135.81 110.941 135.428 113.366 135.428 116.024C135.428 118.683 135.993 120.012 137.122 120.012Z" fill="#FF516A"/>
<path d="M154.218 124C153.18 124 152.311 123.64 151.609 122.921C150.938 122.202 150.602 121.201 150.602 119.918C150.602 118.605 151.349 114.46 152.845 107.485C154.371 100.479 155.134 95.4276 155.134 92.3311L154.859 90.2668C157.239 89.4223 159.467 89 161.542 89C161.847 89.4379 162 90.2042 162 91.2989C162 93.8012 161.222 98.6492 159.665 105.843C158.14 113.006 157.377 117.181 157.377 118.37C157.377 119.527 157.514 120.106 157.789 120.106L160.993 118.933L161.817 120.575C160.779 121.42 159.513 122.202 158.018 122.921C156.553 123.64 155.286 124 154.218 124Z" fill="#FF516A"/>
<path d="M7.18778 122.964C7.18778 122.964 23.841 119.59 27.9257 94.3485C27.9257 94.3485 11.1372 98.5618 8.55345 114.541C8.55345 114.541 9.21089 102.932 0.0350577 100.725C0.0350577 100.725 -0.924044 114.95 7.19085 122.968L7.18778 122.964Z" fill="#89CC00"/>
<path d="M87.6034 85.528C87.6034 85.528 131.814 78.869 131.814 40.7764C131.814 17.4585 106.245 7.65162 90.4013 16.3832C90.4013 16.3832 85.3605 0 62.7971 0C40.2292 0 30.2909 20.5238 31.2575 40.7764C32.6818 70.6383 64.3418 85.528 76.7079 85.528C76.7079 85.528 51.0886 73.4021 49.3052 53.3292C48.4264 43.4382 51.7929 26.6646 69.4294 26.6646C81.8789 26.6646 87.9869 36.2802 89.1996 42.764C89.1996 42.764 94.0816 38.7391 98.6095 38.7391C103.137 38.7391 110.684 40.7764 112.696 50.3106C117.157 71.441 87.6034 85.528 87.6034 85.528Z" fill="#FF516A"/>
<path d="M79.074 78.4812C79.074 78.4812 94.4154 75.9904 98.1771 57.3535C98.1771 57.3535 82.7111 60.4643 80.3317 72.2624C80.3317 72.2624 80.9368 63.6913 72.4836 62.0612C72.4836 62.0612 71.6007 72.5641 79.0769 78.4839L79.074 78.4812Z" fill="#89CC00"/>
</g>
<defs>
<clipPath id="clip0_468_1834">
<rect width="162" height="124" fill="white"/>
</clipPath>
</defs>
</svg>
